<svg width="456" height="456" xmlns="http://www.w3.org/2000/svg" version="1.1" xml:space="preserve" clip-rule="evenodd">
 <defs>
  <linearGradient id="svg_8" x1="0.81731" y1="0.08974" x2="0.48837" y2="0.58227">
   <stop offset="0.083"/>
   <stop offset="1" stop-opacity="0"/>
  </linearGradient>
  <linearGradient id="svg_7" x1="0.81731" y1="0.09084" x2="0.48837" y2="0.58261">
   <stop offset="0.083"/>
   <stop offset="1" stop-opacity="0"/>
  </linearGradient>
  <linearGradient id="svg_6" x1="0.81731" y1="0.09053" x2="0.48837" y2="0.5823">
   <stop offset="0.083"/>
   <stop offset="1" stop-opacity="0"/>
  </linearGradient>
  <linearGradient id="svg_5" x1="0.81731" y1="0.09037" x2="0.48837" y2="0.58214">
   <stop offset="0.083"/>
   <stop offset="1" stop-opacity="0"/>
  </linearGradient>
 </defs>
 <g>
  <title>Layer 1</title>
  <g id="svg_2">
   <path id="svg_3" opacity="0.6" fill="url(#svg_8)" d="m152.62774,412.72552l17.72803,10.9445l0,-12.04899l-16.18113,-0.86351l-1.54691,1.968z"/>
   <path id="svg_4" opacity="0.6" fill="url(#svg_7)" d="m152.62774,352.40024l17.72803,10.9445l0,-12.04899l-16.18113,-0.88359l-1.54691,1.98808z"/>
   <path id="svg_9" opacity="0.6" fill="url(#svg_6)" d="m152.62774,292.07495l17.72803,10.9445l0,-12.04899l-16.18113,-0.88359l-1.54691,1.98808z"/>
   <path id="svg_10" opacity="0.6" fill="url(#svg_5)" d="m152.62774,231.74966l17.72803,10.9445l0,-12.04899l-16.18113,-0.88359l-1.54691,1.98808z"/>
   <g id="svg_11">
    <path id="svg_12" fill="#9e673c" d="m299.13446,433.01l-24.4804,0l0,-241.02001l24.4804,0l0,241.02001z"/>
    <path id="svg_13" fill="#e6a467" d="m312.75951,191.99l0,240.97984l-16.23023,0l0,-240.97984l16.23023,0z"/>
   </g>
   <g id="svg_14" fill="#784d30">
    <path id="svg_15" opacity="0.6" d="m292.38946,412.72552l-17.72803,10.9445l0,-12.04899l16.20568,-0.86351l1.52235,1.968z"/>
    <path id="svg_16" opacity="0.6" d="m292.38946,352.40024l-17.72803,10.9445l0,-12.04899l16.20568,-0.88359l1.52235,1.98808z"/>
    <path id="svg_17" opacity="0.6" d="m292.38946,292.07495l-17.72803,10.9445l0,-12.04899l16.20568,-0.88359l1.52235,1.98808z"/>
    <path id="svg_18" opacity="0.6" d="m292.38946,231.74966l-17.72803,10.9445l0,-12.04899l16.20568,-0.88359l1.52235,1.98808z"/>
   </g>
   <g id="svg_19">
    <path id="svg_20" d="m292.80687,222.63259l-141.21041,0.42171l1.52235,-3.09257l12.25248,-7.36997c0.51564,-0.32131 1.15404,-0.50204 1.79245,-0.50204l106.54007,0.7631c0.68751,0 1.37503,0.20082 1.91522,0.56229l16.00925,6.62695l1.17859,2.59053z" fill="#ffcc80"/>
    <path id="svg_21" d="m290.30236,232.23162l-136.12772,0c-1.42414,0 -2.55362,-0.94384 -2.55362,-2.08849l0,-8.29372c0,-1.16474 1.15404,-2.08849 2.55362,-2.08849l136.12772,0c1.42414,0 2.55362,0.94384 2.55362,2.08849l0,8.29372c0,1.16474 -1.15404,2.08849 -2.55362,2.08849z" fill="#e6a467"/>
    <path id="svg_22" d="m292.80687,403.2269l-141.21041,0.42171l1.52235,-3.09257l12.25248,-7.36997c0.54019,-0.32131 1.15404,-0.48196 1.79245,-0.48196l106.54007,0.7631c0.68751,0 1.37503,0.20082 1.91522,0.56229l16.00925,6.62695l1.17859,2.57045z" fill="#ffcc80"/>
    <path id="svg_23" d="m290.30236,412.84601l-136.12772,0c-1.42414,0 -2.55362,-0.94384 -2.55362,-2.08849l0,-8.29372c0,-1.16474 1.15404,-2.08849 2.55362,-2.08849l136.12772,0c1.42414,0 2.55362,0.94384 2.55362,2.08849l0,8.29372c0,1.16474 -1.15404,2.08849 -2.55362,2.08849z" fill="#e6a467"/>
    <g id="svg_24">
     <path id="svg_25" d="m292.80687,343.04219l-141.21041,0.42171l1.52235,-3.09257l12.25248,-7.36997c0.54019,-0.32131 1.15404,-0.48196 1.79245,-0.48196l106.54007,0.7631c0.68751,0 1.37503,0.20082 1.91522,0.56229l16.00925,6.62695l1.17859,2.57045z" fill="#ffcc80"/>
     <path id="svg_26" d="m290.30236,352.64122l-136.12772,0c-1.42414,0 -2.55362,-0.94384 -2.55362,-2.08849l0,-8.29372c0,-1.16474 1.15404,-2.08849 2.55362,-2.08849l136.12772,0c1.42414,0 2.55362,0.94384 2.55362,2.08849l0,8.29372c0,1.16474 -1.15404,2.08849 -2.55362,2.08849z" fill="#e6a467"/>
    </g>
    <g id="svg_27">
     <path id="svg_28" d="m292.80687,282.83739l-141.21041,0.42171l1.52235,-3.09257l12.25248,-7.36997c0.54019,-0.32131 1.15404,-0.48196 1.79245,-0.48196l106.54007,0.7631c0.68751,0 1.37503,0.20082 1.91522,0.56229l16.00925,6.62695l1.17859,2.57045z" fill="#ffcc80"/>
     <path id="svg_29" d="m290.30236,292.43642l-136.12772,0c-1.42414,0 -2.55362,-0.94384 -2.55362,-2.08849l0,-8.29372c0,-1.16474 1.15404,-2.08849 2.55362,-2.08849l136.12772,0c1.42414,0 2.55362,0.94384 2.55362,2.08849l0,8.29372c0,1.16474 -1.15404,2.08849 -2.55362,2.08849z" fill="#e6a467"/>
    </g>
   </g>
   <g id="svg_30">
    <path id="svg_31" fill="#9e673c" d="m156.7209,433.01l-24.4804,0l0,-241.02001l24.4804,0l0,241.02001z"/>
    <path id="svg_32" fill="#e6a467" d="m170.34595,191.99l0,240.97984l-16.23023,0l0,-240.97984l16.23023,0z"/>
   </g>
  </g>
  <g id="svg_33">
   <g id="svg_34">
    <g id="svg_35">
     <path id="svg_36" d="m327.38917,172.99154c-5.43541,-3.846 -11.06481,-7.31808 -16.60764,-10.96058c-0.39596,-0.26031 -0.78544,-0.52989 -1.56492,-1.05223c2.63636,-0.40929 4.88872,-0.91077 7.16396,-1.08586c5.63388,-0.43538 11.221,-1.16875 16.68425,-2.87898c2.32199,-0.72584 4.34702,-1.98909 5.53489,-4.60082c0.65909,-1.45225 0.67749,-2.17114 -0.06118,-2.46216c0.70038,-2.07432 1.35201,-5.53478 -0.75311,-8.24334c0,0 -0.49495,4.90112 -2.74381,7.16038c-1.01077,-0.59828 -2.02155,-1.19659 -3.03828,-1.80474c-0.65711,1.01977 -3.383,1.00237 -5.07128,-0.19131c-0.04477,0.20986 -0.09552,0.38264 -0.1179,0.56293c-0.01791,0.15131 -0.00398,0.30957 -0.00398,0.38553c-0.72873,0 -1.43707,0.0284 -2.14342,-0.00985c-0.64318,-0.03304 -1.28684,-0.13682 -2.06383,-0.22493c-0.73471,1.15195 -1.75741,0.56757 -2.71744,0.05738c-1.12468,1.22732 -2.4558,1.1589 -3.77498,0.93164c-3.13578,-0.53973 -6.25666,-1.17571 -9.39493,-1.70097c-0.60488,-0.10203 -1.25202,0.13276 -1.87878,0.21044c-0.03233,-0.15654 -0.06517,-0.31016 -0.09948,-0.46669c0.49295,-0.09913 0.9859,-0.25973 1.48184,-0.29046c4.29429,-0.26262 8.59657,-0.40929 12.88489,-0.79019c1.84944,-0.16291 3.66953,-0.78091 5.49609,-1.22268c1.31321,-0.31711 2.62593,-0.67888 4.0043,-1.04295c-0.13579,1.46385 -0.63123,2.9706 -0.63123,2.9706c2.23246,0.21798 3.33626,-1.83314 3.88044,-3.72077c0.10795,-0.11537 0.20893,-0.24117 0.31886,-0.35422c-0.55165,1.98214 -1.66242,4.07499 -1.66242,4.07499c3.28403,0 4.86286,-3.06509 5.61148,-5.59392c0.32084,-0.22204 0.66805,-0.40872 1.06946,-0.55539c2.60802,-0.95077 3.29994,-2.22794 3.15618,-5.43334c-0.11988,-2.68014 -1.6072,-5.02172 -3.75259,-5.44029c-2.02353,-0.3948 -4.09185,-0.48466 -6.14523,-0.65279c-1.32316,-0.109 -2.65478,-0.14204 -3.98192,-0.16986c-1.68678,-0.03594 -3.16613,-0.55597 -4.60718,-1.70559c-0.90482,-0.72178 -2.22799,-1.06441 -3.34869,-1.0244c-3.19448,0.11131 -6.37405,0.59597 -9.53869,-0.47771c-0.69591,-0.23653 -1.60123,-0.11362 -2.29116,0.19885c-2.70701,1.22035 -5.47769,0.84933 -8.27223,0.82091c-2.62991,-0.02378 -5.36776,-0.01624 -7.87429,0.77106c-4.08787,1.28471 -7.27986,4.35443 -9.67897,8.47292c-0.24971,0.42784 -0.51135,0.90555 -0.8685,1.17571c-3.78693,2.85987 -6.21438,6.94646 -8.05685,11.65627c-1.67036,4.26226 -0.95207,8.18129 1.42662,11.52118c2.76619,3.88368 5.6498,7.78708 8.9925,10.94957c5.21205,4.92954 10.78076,9.36397 16.33357,13.78044c6.23676,4.96317 12.70284,9.53964 18.9172,14.53759c4.10328,3.30162 7.77879,7.24966 11.13594,12.27892c-1.85691,0.8441 -3.5193,1.79952 -5.27473,2.35085c-2.3802,0.74787 -4.82357,1.24412 -7.25748,1.73168c-1.57287,0.31422 -3.1721,0.52235 -4.76736,0.58902c-3.38749,0.14204 -6.79039,0.40175 -10.16395,0.16522c-3.91675,-0.27653 -7.79719,-1.20123 -11.71245,-1.54674c-6.73966,-0.59366 -12.86698,-3.68309 -19.09927,-6.25135c-2.31354,-0.95367 -4.38334,-2.86914 -6.37852,-4.63155c-0.68198,-0.60062 -0.98242,-2.04127 -1.1406,-3.15726c-1.74349,-12.41109 -5.94874,-23.57516 -12.33325,-33.67774c-2.94926,-4.66692 -6.7322,-8.29552 -10.70565,-11.63249c-7.71015,-6.48151 -16.30271,-10.91884 -25.25344,-14.54454c-9.93016,-4.02339 -20.12248,-6.63224 -30.47297,-8.64799c-8.38366,-1.63197 -16.89168,-2.38389 -25.1296,-5.11854c-5.19365,-1.72183 -10.27985,-3.67788 -15.42625,-6.44789c0.88094,-0.67193 1.60123,-1.28935 2.37622,-1.79777c4.74894,-3.108 9.59391,-6.03162 14.23888,-9.33616c3.08307,-2.19258 5.78011,-5.02403 7.86833,-8.579c2.81047,-4.7875 2.7095,-9.764 0.69591,-14.74572c-2.04145,-5.05708 -5.48365,-8.59987 -9.78642,-11.00117c-7.60667,-4.24602 -15.84062,-5.28434 -24.06012,-5.73365c-11.01804,-0.6012 -22.06295,-0.55597 -33.09492,-0.76411c-7.47288,-0.13971 -14.21254,-2.80305 -20.19957,-7.98072c-4.0426,-3.49584 -5.74133,-9.66486 -4.24805,-15.4814c0.66556,-2.59492 1.59725,-5.09707 2.41502,-7.6375c0.15221,-0.47075 0.33875,-0.92701 0.37507,-1.45457c-4.0829,5.37188 -7.56987,11.02957 -6.56307,18.8068c0.51533,3.97586 2.00513,7.4485 4.36941,10.31533c5.03098,6.10004 11.06679,10.49737 18.12978,12.34965c5.69258,1.49225 11.54979,2.28012 17.36872,2.95436c8.57069,0.9931 17.15134,1.85692 25.5335,4.26226c3.32034,0.95367 6.54068,2.38216 9.79636,3.62629c0.5989,0.22958 1.15254,0.60526 2.0519,1.09048c-0.69193,0.37393 -1.10628,0.61742 -1.53406,0.82324c-5.24638,2.52129 -10.66337,4.65243 -15.70034,7.6491c-6.88391,4.09704 -13.06994,9.50427 -15.17455,18.77607c-2.44784,10.78377 -1.60321,17.82065 6.50835,25.78919c7.00777,6.88326 15.37153,10.79536 24.03723,13.98161c8.5483,3.14335 17.28117,5.23622 26.14235,6.55687c8.3006,1.23717 16.38828,3.54279 24.32376,6.4502c6.04575,2.21345 11.99648,4.88201 17.39258,8.96685c3.31636,2.51203 6.66305,4.94345 8.57269,9.15874c2.08223,4.59619 3.65113,9.42891 4.38732,14.58743c0.5402,3.78397 0.92969,7.6091 1.644,11.34843c1.63803,8.58423 6.11539,15.02456 11.83233,20.42485c6.67896,6.30815 14.40751,10.22315 22.46038,13.47723c10.58577,4.27906 21.53268,6.28498 32.63628,6.53367c12.94011,0.29102 25.69566,-1.48994 37.69165,-7.82708c7.1968,-3.80135 13.41116,-9.01207 17.62638,-16.95683c1.01077,-1.90677 1.73304,-4.13008 2.17376,-6.32033c1.84496,-9.17962 -0.56857,-17.26178 -4.68628,-25.05118c-5.85373,-11.08116 -14.59456,-18.26648 -23.83279,-24.80248l-0.00002,0.00009z"/>
    </g>
   </g>
  </g>
 </g>
</svg>